<?xml version="1.0" standalone="no"?>
<!DOCTYPE svg PUBLIC "-//W3C//DTD SVG 20010904//EN"
 "http://www.w3.org/TR/2001/REC-SVG-20010904/DTD/svg10.dtd">
<svg version="1.0" xmlns="http://www.w3.org/2000/svg"
 width="680.000000pt" height="400.000000pt" viewBox="0 0 680.000000 400.000000"
 preserveAspectRatio="xMidYMid meet">

<g transform="translate(0.000000,400.000000) scale(0.100000,-0.100000)"
fill="#000000" stroke="none">
<path d="M3301 3930 c-17 -81 -15 -146 13 -356 4 -25 0 -34 -19 -42 -15 -7
-26 -7 -33 0 -12 12 -161 -60 -162 -78 0 -6 -39 -29 -87 -50 -51 -23 -104 -55
-128 -78 -22 -21 -85 -67 -140 -101 -112 -69 -405 -229 -410 -223 -7 7 -24
210 -30 353 -10 273 -31 436 -62 484 -13 20 -20 22 -56 17 -27 -4 -50 -16 -65
-32 -22 -25 -22 -27 -16 -247 3 -122 12 -327 20 -455 18 -306 20 -279 -20
-286 -18 -4 -82 -38 -141 -76 -120 -78 -139 -85 -274 -100 -52 -6 -147 -24
-212 -40 -65 -17 -132 -30 -149 -30 -18 0 -80 -16 -138 -36 -88 -30 -112 -35
-142 -28 -59 15 -50 53 76 303 60 119 116 223 125 232 9 9 20 39 24 67 4 30
14 57 26 68 11 10 27 43 36 73 36 125 63 130 123 24 69 -123 148 -243 184
-277 18 -17 49 -63 70 -102 38 -73 86 -127 122 -138 34 -10 77 44 77 96 -1 57
-50 163 -100 213 -51 51 -88 111 -98 155 -4 23 -26 55 -60 90 -37 38 -73 93
-116 175 -34 66 -73 135 -86 153 -23 31 -78 72 -95 72 -4 0 -5 -28 -1 -61 l6
-62 -37 7 c-21 4 -43 10 -51 12 -10 4 -13 -8 -14 -54 0 -51 -10 -84 -67 -218
-36 -88 -98 -224 -136 -304 -38 -80 -81 -176 -95 -213 -20 -54 -36 -77 -74
-109 -38 -32 -49 -48 -49 -70 0 -17 -6 -31 -16 -35 -8 -3 -30 -36 -49 -73 -19
-37 -47 -80 -64 -95 -24 -23 -28 -32 -20 -47 12 -22 4 -38 -19 -38 -9 -1 8
-10 38 -21 69 -25 261 -27 297 -4 14 10 47 15 89 15 76 0 329 49 449 87 44 14
105 27 135 30 101 10 103 -27 14 -209 -34 -68 -56 -127 -57 -148 0 -26 -10
-46 -38 -76 -20 -23 -40 -56 -44 -75 -4 -19 -29 -78 -56 -131 -52 -106 -68
-153 -98 -294 -11 -50 -31 -119 -46 -153 -22 -53 -25 -70 -19 -126 6 -55 4
-66 -10 -71 -22 -9 -43 11 -52 49 -4 20 -28 53 -63 88 -120 119 -301 487 -301
612 0 14 -7 27 -15 31 -11 4 -15 21 -15 58 0 66 -9 81 -46 76 -24 -2 -30 -10
-42 -48 -18 -60 -10 -190 22 -350 14 -69 26 -143 26 -165 0 -34 5 -43 35 -64
47 -31 111 -131 169 -261 58 -128 95 -188 148 -236 50 -44 107 -71 173 -79
l50 -6 21 53 c12 29 33 80 48 113 15 36 26 79 26 107 0 35 5 50 18 57 26 14
68 95 91 179 11 40 27 87 35 104 9 17 16 43 16 58 0 15 18 75 40 134 22 58 45
127 50 153 6 25 18 51 26 57 8 7 28 63 43 127 16 63 38 129 49 148 11 18 18
40 15 50 -2 10 10 61 27 114 23 71 42 109 73 146 38 46 46 51 83 51 33 0 45 5
58 25 9 14 21 25 26 25 5 0 17 -24 27 -52 14 -44 17 -94 18 -293 1 -180 6
-256 18 -305 17 -72 24 -166 33 -440 6 -214 14 -295 54 -556 47 -309 52 -359
51 -571 -1 -190 0 -204 19 -223 16 -16 20 -33 20 -85 l0 -65 35 0 c56 0 64 26
64 229 0 156 1 175 20 204 46 72 46 72 21 151 -20 65 -21 76 -9 101 9 17 27
33 47 40 19 6 38 17 42 26 5 9 -1 54 -15 114 -55 232 -107 551 -140 845 -9 80
-18 161 -20 180 -2 19 -6 62 -9 95 -3 33 -10 112 -16 175 -15 171 -50 579 -50
590 0 4 16 14 35 20 19 6 58 31 87 55 57 47 95 65 133 65 22 0 27 -9 50 -87
42 -142 65 -206 90 -243 14 -22 25 -61 30 -98 5 -47 20 -87 55 -155 69 -131
110 -237 275 -708 13 -36 39 -98 59 -137 26 -52 40 -97 50 -165 9 -58 24 -114
40 -146 15 -29 32 -78 37 -109 8 -41 23 -72 54 -114 23 -31 52 -77 64 -102 26
-52 79 -96 117 -96 26 0 26 2 21 42 -3 23 -31 93 -62 157 -40 81 -57 127 -56
152 1 29 -6 42 -34 68 -29 26 -35 39 -35 71 0 45 -55 206 -80 235 -17 19 -41
103 -55 190 -17 104 -49 222 -65 240 -10 11 -20 42 -22 72 -4 36 -23 87 -66
175 -49 100 -66 147 -87 248 -54 251 -66 295 -119 429 -29 75 -57 152 -60 171
-4 19 -10 42 -12 51 -3 11 19 31 74 67 83 54 173 102 190 102 6 0 15 6 19 14
4 8 19 16 33 18 21 2 26 9 28 41 3 31 10 42 42 63 21 14 49 24 62 22 21 -3 23
-9 26 -68 5 -93 -15 -264 -42 -372 -23 -89 -23 -94 -6 -113 34 -38 61 -107 72
-183 10 -67 8 -95 -10 -208 -27 -162 -27 -200 -2 -270 21 -60 146 -279 187
-328 19 -22 23 -37 19 -59 -4 -20 1 -41 19 -71 14 -24 34 -84 45 -135 13 -64
30 -110 55 -149 19 -32 35 -67 35 -78 0 -26 160 -184 186 -184 11 0 47 -13 80
-29 l61 -29 56 202 c31 110 84 307 117 436 80 310 114 424 146 496 14 32 30
88 35 123 8 58 29 101 49 101 9 0 79 -385 125 -685 36 -237 57 -438 53 -518
l-3 -70 57 -34 c31 -18 65 -44 76 -58 11 -14 27 -25 35 -25 43 0 219 55 300
93 92 43 365 210 379 231 4 6 8 23 8 39 0 15 5 36 12 47 10 15 8 48 -11 167
-13 81 -30 200 -37 263 -8 63 -25 153 -38 200 -31 107 -45 181 -101 538 -25
157 -59 357 -75 445 -37 196 -39 276 -7 337 23 47 82 94 131 106 l28 7 -6
-104 c-7 -93 -3 -130 29 -324 40 -244 67 -371 120 -567 40 -147 54 -211 65
-308 4 -36 12 -83 18 -105 6 -22 20 -85 32 -140 11 -55 52 -228 90 -385 61
-249 90 -398 90 -459 0 -14 -24 -24 -112 -50 -151 -42 -199 -80 -202 -158 l-1
-38 53 -3 c29 -2 97 6 152 17 54 12 116 21 138 21 36 0 40 -2 50 -37 6 -21 20
-91 32 -156 33 -192 65 -261 137 -295 30 -14 35 -14 43 -2 23 37 15 128 -26
285 -19 73 -34 155 -34 182 0 61 19 82 107 113 64 23 99 51 105 85 3 19 -3 20
-109 20 -87 0 -115 3 -126 15 -13 13 -62 228 -224 965 -36 166 -190 909 -223
1075 -10 52 -23 160 -28 239 -7 115 -12 147 -25 156 -28 20 -50 95 -51 175
l-1 75 -35 0 c-30 0 -35 4 -45 35 -23 79 -45 79 -50 -1 -3 -69 -26 -119 -73
-160 -34 -30 -145 -89 -168 -89 -6 0 -14 19 -17 42 -7 52 -32 86 -84 114 -37
19 -62 22 -290 28 -137 4 -297 4 -355 0 l-106 -7 6 -61 c3 -33 16 -92 29 -130
28 -85 29 -111 3 -153 -24 -39 -60 -43 -119 -14 -48 25 -59 38 -63 81 -3 31
-7 35 -45 45 -49 12 -72 31 -126 105 -62 85 -117 138 -151 146 -17 3 -63 28
-103 55 -107 73 -208 119 -264 119 l-47 0 -11 -50z m275 -213 c11 -7 37 -30
57 -52 19 -23 46 -46 59 -52 13 -6 44 -21 70 -33 36 -16 65 -43 122 -115 61
-75 112 -126 154 -151 2 -1 -8 -24 -21 -51 -31 -60 -42 -100 -68 -245 -26
-145 -49 -229 -65 -235 -15 -5 -52 2 -279 53 l-160 37 2 81 c3 149 12 269 32
456 11 102 22 211 25 243 3 32 8 63 12 68 7 12 35 11 60 -4z m1248 -55 c32
-11 64 -26 71 -34 15 -16 45 -135 45 -180 0 -26 -9 -42 -40 -71 -43 -40 -48
-62 -29 -129 11 -43 28 -48 84 -21 19 9 36 15 38 12 2 -2 18 -53 35 -114 40
-141 72 -308 117 -620 50 -347 92 -596 115 -687 25 -96 27 -172 5 -222 -23
-53 -105 -138 -197 -203 -43 -30 -78 -58 -78 -62 0 -12 -173 -53 -210 -49 -34
3 -35 5 -47 62 -6 33 -16 114 -22 180 -17 186 -30 261 -58 339 -23 65 -27 93
-33 282 -4 116 -15 253 -24 305 -38 227 -85 450 -151 711 -24 96 -48 217 -54
268 -11 102 -5 216 14 231 41 34 319 35 419 2z m-543 -428 c3 -43 13 -97 22
-119 9 -22 19 -74 21 -115 2 -41 11 -129 20 -195 21 -156 22 -148 -17 -125
-20 12 -77 26 -138 35 -127 19 -142 23 -135 40 2 7 28 89 56 181 125 404 159
463 171 298z m-561 -584 c113 -27 231 -52 262 -55 44 -5 71 -15 115 -46 32
-21 68 -39 81 -39 12 0 22 -1 22 -3 0 -1 -5 -18 -10 -37 -6 -19 -17 -75 -26
-125 -8 -49 -33 -144 -54 -210 -22 -66 -46 -158 -54 -204 -9 -46 -24 -102 -35
-125 -12 -23 -27 -62 -35 -86 -8 -25 -26 -76 -40 -115 -14 -38 -26 -82 -26
-97 0 -37 -20 -36 -66 5 -27 23 -56 71 -105 173 -37 78 -85 170 -107 205 -22
35 -45 84 -52 108 -7 27 -24 55 -45 75 -54 49 -67 105 -71 296 -1 91 0 205 3
253 5 74 8 87 22 82 8 -3 108 -28 221 -55z"/>
</g>
</svg>
